<svg xmlns="http://www.w3.org/2000/svg" width="307" height="304" viewBox="0 0 307 304">
  <defs>
    <style>
      .cls-1 {
        fill: #3593cf;
      }

      .cls-1, .cls-2 {
        fill-rule: evenodd;
        opacity: 0.65;
      }

      .cls-2 {
        fill: #9427c8;
      }
    </style>
  </defs>
  <path id="Rectangle_3_copy_3" data-name="Rectangle 3 copy 3" class="cls-1" d="M20.2,157.565H126.614a20,20,0,0,1,20,20V284.241a20,20,0,0,1-20,20H20.2a20,20,0,0,1-20-20V177.565A20,20,0,0,1,20.2,157.565Z"/>
  <path id="Rectangle_3_copy_3-2" data-name="Rectangle 3 copy 3" class="cls-2" d="M86.2,0.454H286.559a20,20,0,0,1,20,20V221.235a20,20,0,0,1-20,20H86.2a20,20,0,0,1-20-20V20.454A20,20,0,0,1,86.2.454Z"/>
</svg>
