<svg xmlns="http://www.w3.org/2000/svg" xmlns:xlink="http://www.w3.org/1999/xlink" width="1060" height="239" viewBox="0 0 1060 239">
  <defs>
    <style>
      .cls-1 {
        font-size: 25px;
        fill: #fff;
        font-family: Coolvetica;
      }

      .cls-2 {
        fill: #9b36d0;
      }

      .cls-3 {
        fill: #ab56d2;
      }

      .cls-10, .cls-11, .cls-3, .cls-4, .cls-5, .cls-7, .cls-8, .cls-9 {
        fill-rule: evenodd;
      }

      .cls-4 {
        fill: #a22ed8;
      }

      .cls-5 {
        fill: #901ec5;
      }

      .cls-6 {
        filter: url(#filter);
      }

      .cls-7 {
        fill: #712295;
      }

      .cls-8 {
        fill: #621983;
      }

      .cls-9 {
        fill: #591677;
      }

      .cls-10 {
        fill: #4b1266;
      }

      .cls-11 {
        fill: #3b0d50;
      }
    </style>
    <filter id="filter" filterUnits="userSpaceOnUse">
      <feOffset result="offset" in="SourceAlpha"/>
      <feGaussianBlur result="blur" stdDeviation="5.916"/>
      <feFlood result="flood" flood-opacity="0.42"/>
      <feComposite result="composite" operator="in" in2="blur"/>
      <feBlend result="blend" in="SourceGraphic"/>
    </filter>
  </defs>
  <text id="pixelcoin" class="cls-1" transform="translate(266.86 162.397) scale(8.211)">pixel<tspan class="cls-2">coin</tspan></text>
  <path class="cls-3" d="M27,169.927H77.073V220H27V169.927Z"/>
  <path id="Rectangle_2_copy" data-name="Rectangle 2 copy" class="cls-4" d="M77.073,169.927h50.072V220H77.073V169.927Z"/>
  <path id="Rectangle_2_copy_2" data-name="Rectangle 2 copy 2" class="cls-4" d="M27,119.855H77.073v50.072H27V119.855Z"/>
  <path id="Rectangle_2_copy_3" data-name="Rectangle 2 copy 3" class="cls-5" d="M77.073,119.855h50.072v50.072H77.073V119.855Z"/>
  <path id="Rectangle_2_copy_4" data-name="Rectangle 2 copy 4" class="cls-5" d="M127.145,169.927h50.073V220H127.145V169.927Z"/>
  <path id="Rectangle_2_copy_5" data-name="Rectangle 2 copy 5" class="cls-5" d="M27,69.782H77.073v50.073H27V69.782Z"/>
  <path id="Rectangle_2_copy_6" data-name="Rectangle 2 copy 6" class="cls-5" d="M77.073,69.782h50.072v50.073H77.073V69.782Z"/>
  <path id="Rectangle_2_copy_7" data-name="Rectangle 2 copy 7" class="cls-5" d="M127.145,119.855h50.073v50.072H127.145V119.855Z"/>
  <path id="Rectangle_2_copy_8" data-name="Rectangle 2 copy 8" class="cls-5" d="M127.145,69.782h50.073v50.073H127.145V69.782Z"/>
  <g id="Group_1_copy_2" data-name="Group 1 copy 2" class="cls-6">
    <path class="cls-7" d="M77.073,119.855h50.072v50.072H77.073V119.855Z"/>
    <path id="Rectangle_2_copy-2" data-name="Rectangle 2 copy" class="cls-8" d="M127.145,119.855h50.073v50.072H127.145V119.855Z"/>
    <path id="Rectangle_2_copy_2-2" data-name="Rectangle 2 copy 2" class="cls-8" d="M77.073,69.782h50.072v50.073H77.073V69.782Z"/>
    <path id="Rectangle_2_copy_3-2" data-name="Rectangle 2 copy 3" class="cls-9" d="M127.145,69.782h50.073v50.073H127.145V69.782Z"/>
    <path id="Rectangle_2_copy_4-2" data-name="Rectangle 2 copy 4" class="cls-9" d="M177.218,119.855h50.073v50.072H177.218V119.855Z"/>
    <path id="Rectangle_2_copy_5-2" data-name="Rectangle 2 copy 5" class="cls-9" d="M77.073,19.709h50.072V69.782H77.073V19.709Z"/>
    <path id="Rectangle_2_copy_6-2" data-name="Rectangle 2 copy 6" class="cls-10" d="M127.145,19.709h50.073V69.782H127.145V19.709Z"/>
    <path id="Rectangle_2_copy_7-2" data-name="Rectangle 2 copy 7" class="cls-10" d="M177.218,69.782h50.073v50.073H177.218V69.782Z"/>
    <path id="Rectangle_2_copy_8-2" data-name="Rectangle 2 copy 8" class="cls-11" d="M177.218,19.709h50.073V69.782H177.218V19.709Z"/>
  </g>
</svg>
